PathFileType	4	(X/Y/Z)	T1_P2_Vision_Movement_0_0-735.trc
DataRate	CameraRate	NumFrames	NumMarkers	Units	OrigDataRate	OrigDataStartFrame	OrigNumFrames
60	60	5	27	m	60	367	735
Frame#	Time	RHip			RKnee			RAnkle			RBigToe			RSmallToe			RHeel			LHip			LKnee			LAnkle			LBigToe			LSmallToe			LHeel			Neck			Head			Nose			RShoulder			RElbow			RWrist			RThumb			RIndex			RPinky			LShoulder			LElbow			LWrist			LThumb			LIndex			LPinky		
		X1	Y1	Z1	X2	Y2	Z2	X3	Y3	Z3	X4	Y4	Z4	X5	Y5	Z5	X6	Y6	Z6	X7	Y7	Z7	X8	Y8	Z8	X9	Y9	Z9	X10	Y10	Z10	X11	Y11	Z11	X12	Y12	Z12	X13	Y13	Z13	X14	Y14	Z14	X15	Y15	Z15	X16	Y16	Z16	X17	Y17	Z17	X18	Y18	Z18	X19	Y19	Z19	X20	Y20	Z20	X21	Y21	Z21	X22	Y22	Z22	X23	Y23	Z23	X24	Y24	Z24	X25	Y25	Z25	X26	Y26	Z26	X27	Y27	Z27
368	6.133333333333334	432.143868039587	3640.806758184069	647.6770678737225	820.723716692842	3677.3801187005747	653.093339725928	1212.2760547066057	3740.6816392521496	703.3122387541258	1298.3518245227679	3659.4659679257975	662.3695983498503	1287.4150778221183	3688.436262761643	611.2036540310853	1278.0332196937002	3802.1902480907693	757.4396523306142	460.5470652153381	3622.783976930986	869.0695063925718	838.6629885433889	3602.189945435717	850.9268642033988	1235.0466308247114	3694.9824338561916	860.7764318599558	1316.6818748546557	3568.1529600056783	813.6152937273046	1283.5729127132565	3538.0624113530616	844.7621883822308	1266.0035604950608	3729.6320805722	864.5933582188678	-122.79823148503229	3619.313795109991	800.8646753544815	-392.71987950528637	3567.7288709144755	812.287942072518	-242.32820458758204	3474.411163476972	752.6136946980427	-55.45758501617659	3735.682147888597	669.4595255298959	181.16335288105063	3793.7472893879776	531.6803183148772	45.22575744320646	3521.6442389165077	540.6854981388503	-53.05220385878199	3496.8627736715216	630.7560114794949	-45.56961014923371	3439.7854554322707	605.8593002479948	-11.49796400014425	3455.1591556634294	606.0954234872025	-11.78455137186643	3644.175408201436	988.2781952727083	250.65607522875078	3567.9520180680533	986.4515242928272	491.853950236993	3531.2158568061086	990.8126078417664	588.1914918761003	3509.6707653522785	949.1710828960505	602.9952056688578	3410.8205123711386	937.5936920082183	615.4696263964624	3468.6222772062915	1016.3370877736579
369	6.15	431.13899835858786	3637.683000495733	645.8271832204556	818.9678030063227	3674.19822382742	649.5240477636744	1213.277412500171	3740.9671403318994	703.5344505781144	1299.6239394945114	3660.6380422261454	663.1789937251535	1287.403206139574	3689.340539114824	611.5106881363412	1275.3290578728115	3798.426683548314	754.8737584364148	459.61522733996026	3617.1015351096216	867.2291793619036	838.0890313982588	3601.916740239364	851.3608205465149	1231.3825182825842	3687.250766319823	857.0520916138405	1315.2755451429084	3567.50439184084	813.2555618429523	1283.0361481655636	3537.543872960566	844.5484395120487	1265.265973505274	3729.2095334764426	864.4342348057071	-122.83610927334675	3617.3031231210966	799.1536870112536	-390.91518082020434	3572.136919949212	809.9260645112225	-242.28669295348976	3474.5744858244807	752.716769505818	-55.92816894836557	3731.1686488400205	666.0775153325225	183.47752137500848	3800.0025524142084	536.5897975177762	49.93034791771703	3511.961268951105	537.9845797355882	-45.40778164511012	3478.8156715920645	625.7692979784765	-38.358095286209874	3423.176341697218	601.2260764089035	-9.213995241321692	3442.636803760173	602.6835195008658	-12.936618851506397	3643.4798492603118	988.1963579914884	250.8062621167299	3568.55157184333	986.4764421747625	493.629979393446	3530.4919933151114	990.2087450545297	591.9307216484555	3506.660185461373	947.369528127248	603.3368110040499	3404.7618687521417	934.1330615901682	616.0986471418602	3463.938046858844	1011.99669739127
370	6.166666666666667	430.95937000413954	3635.271439424755	644.4672206042209	819.3368075119356	3674.778579182921	649.9059409784728	1214.542591542336	3741.765364225647	704.1600598364269	1300.4811026484228	3660.7607592967647	663.4211546304521	1286.8569788157442	3690.6028923045787	610.8687700783377	1274.0608975198497	3796.6261563793414	753.5822724391613	459.1000637670428	3615.152306561654	866.1053271950756	837.8617253953473	3602.276981545608	851.4204625155153	1228.9565827972472	3683.761864502521	855.7575041216678	1313.5708575768467	3566.1845725894045	812.5370247134667	1283.1745538182618	3536.8963052420822	844.3282274572709	1264.0075462919986	3728.503743328987	864.2110873507477	-122.97060917391734	3613.1746701524994	795.5588232383632	-389.42413185110695	3576.5173632739734	809.7914650645944	-242.9732147151107	3473.9880560250235	752.2733250430621	-56.9202396715968	3724.187222344089	661.0488158953981	185.20579524163807	3800.8308953228134	538.4628275339392	54.92321116469742	3503.6513108114586	535.4135729834857	-38.62433440028737	3458.530843101301	620.2796712581991	-31.62109161453614	3403.1594732855315	595.967677679525	-1.4033608195325857	3430.2599441861657	600.1971514226612	-14.281530503749984	3645.0684737944575	987.8916776485582	249.6837420353861	3568.3250493273226	986.2575304683913	494.24723276901864	3530.248820678255	990.106798672278	593.4127255546739	3498.880305639556	943.2075626620601	603.102596480242	3398.035235063727	931.4098627347937	615.6508377135823	3457.226712395489	1005.1688303666672
371	6.183333333333334	433.07326213196933	3635.273338946562	644.6931917648203	822.0075166150646	3679.6779425375917	654.0472353020062	1215.949403920031	3742.73828045066	704.7283094117388	1299.7186193572938	3656.9800991063853	661.4754856426034	1285.765389891931	3689.563465357885	608.9866651571773	1276.3542664593788	3799.3632574267276	755.1556766300627	459.0558569150539	3615.7598682198236	865.0107043000477	839.6067541209386	3603.2723793576033	850.7139546760596	1229.5431085546106	3685.761269288747	856.7336990443304	1312.0515026473165	3564.073327166486	810.9763831260474	1283.6283970575435	3536.1747455742984	843.8190833841595	1263.367928127771	3728.1623423032115	864.1025600587707	-123.16206587650413	3607.7081556100065	790.7023068539531	-388.25868886968243	3578.211613842761	810.1625571079777	-243.48343416209715	3471.9434844504135	750.4724386029034	-56.20013131809739	3718.832816007328	656.3594466132786	186.51005039169993	3796.3565191533576	536.8703482752064	60.81805125439182	3497.8780958342777	533.6602219126476	-32.28368054727615	3438.848353991881	615.1182475739772	-24.69883206699809	3384.2002995768717	591.4868054820178	13.009031917277985	3418.785799988831	600.2732902873121	-14.794553749578675	3644.9207365096518	985.2194786352202	247.88884434636975	3567.6850004560138	985.8714901316619	493.96273632177076	3528.542631679594	989.60644236051	591.9772366821818	3487.344540009183	936.1001220664918	602.5019480718411	3393.1111808128085	929.1731421289838	614.2510559901386	3449.9484428142705	997.5945563140829
372	6.2	437.13582128199107	3637.431006962178	646.519300570902	825.5259031886923	3684.66023054375	658.1630883777792	1217.9130753664904	3744.0371186365974	705.1850055736606	1296.2343466947877	3647.0338473994084	656.0706310105825	1283.7888289860214	3684.2364657220023	606.2820630364579	1280.9287854358531	3804.618424779217	758.1144472472813	459.722146342017	3616.8984940168602	863.61546709491	843.324184949251	3603.841272354004	849.4520565756221	1232.86794531727	3690.6186895840915	858.7744139072826	1310.5861002110128	3561.2026553173764	808.3100432604551	1283.6967848246568	3535.6109632584876	842.7223515920729	1264.1412822633683	3728.5534832765316	864.2112207155662	-123.32123128794044	3603.6376312016196	786.9453848509187	-387.43620981789223	3577.7212801263827	810.1700233634024	-243.14418076357606	3468.4581983520466	747.1949685864386	-52.87065899863019	3717.489018102034	653.4983204352433	187.26525004745574	3788.9592184103594	532.9436437314284	67.05904992731652	3491.4685631677576	531.1741982335615	-25.601066419581233	3419.3574888270055	610.075660018472	-17.827593630872983	3369.824123979579	588.4442621760487	31.084542842116498	3409.1803432401234	602.9703246137643	-14.44470407452236	3640.3672086622387	979.991497010895	246.44700601717108	3567.1923243640654	985.6093583024697	492.9738669911192	3523.362485569754	987.4877679248302	589.5572536461968	3474.4545696338455	927.7354687360704	602.0131033459537	3391.1700193862716	927.6357766901504	613.3493072658594	3444.7164331553527	991.9048913810424
